<svg width="38" height="43" viewBox="0 0 38 43" fill="none" xmlns="http://www.w3.org/2000/svg">
<path d="M0 3.79382H38V22.2395C38 26.9681 35.3864 31.3377 31.1438 33.7023L19 40.4703L6.85633 33.7023C2.61359 31.3377 4.35528e-06 26.9681 4.35528e-06 22.2395L0 3.79382Z" fill="#FFDD2D"/>
<path fill-rule="evenodd" clip-rule="evenodd" d="M10.4828 13.9115V19.6767C11.2905 18.7863 12.7591 18.1838 14.4382 18.1838H16.2629V24.8857C16.2629 26.6688 15.7665 28.2295 15.0301 29.088H22.9672C22.2323 28.2286 21.7371 26.67 21.7371 24.8891V18.1838H23.5619C25.2409 18.1838 26.7096 18.7863 27.5173 19.6767V13.9115H10.4828Z" fill="#333333"/>
</svg>
