<svg width="243" height="30" viewBox="0 0 243 30" fill="none" xmlns="http://www.w3.org/2000/svg">
<g clip-path="url(#clip0_3_1079)">
<path d="M60.6587 0H15.9629C7.14683 0 0 6.69342 0 14.9502C0 23.2069 7.14683 29.9003 15.9629 29.9003H60.6587C69.4748 29.9003 76.6216 23.2069 76.6216 14.9502C76.6216 6.69342 69.4748 0 60.6587 0Z" fill="white"/>
<path d="M16.1349 4.19031C10.9623 4.19031 6.76978 8.11686 6.76978 12.961C6.76811 14.1127 7.00945 15.2534 7.47992 16.3175C7.95039 17.3816 8.64073 18.3482 9.51127 19.1617C11.206 20.7496 15.1982 23.0476 15.4324 25.4593C15.4673 25.8213 15.7472 26.1172 16.1349 26.1172C16.5226 26.1172 16.802 25.821 16.837 25.4593C17.0711 23.0476 21.0637 20.7496 22.7581 19.1617C23.6286 18.3482 24.319 17.3816 24.7894 16.3175C25.2599 15.2534 25.5012 14.1127 25.4996 12.961C25.4996 8.11686 21.3071 4.19031 16.1349 4.19031Z" fill="url(#paint0_linear_3_1079)"/>
<path d="M16.1349 4.19031C10.9623 4.19031 6.76978 8.11686 6.76978 12.961C6.76811 14.1127 7.00945 15.2534 7.47992 16.3175C7.95039 17.3816 8.64073 18.3482 9.51127 19.1617C11.206 20.7496 15.1982 23.0476 15.4324 25.4593C15.4673 25.8213 15.7472 26.1172 16.1349 26.1172C16.5226 26.1172 16.802 25.821 16.837 25.4593C17.0711 23.0476 21.0637 20.7496 22.7581 19.1617C23.6286 18.3482 24.319 17.3816 24.7894 16.3175C25.2599 15.2534 25.5012 14.1127 25.4996 12.961C25.4996 8.11686 21.3071 4.19031 16.1349 4.19031Z" fill="#EB5547"/>
<path d="M16.1352 16.0359C16.7835 16.0359 17.4171 15.8559 17.9561 15.5186C18.4951 15.1813 18.9152 14.7019 19.1633 14.141C19.4114 13.5801 19.4763 12.9629 19.3498 12.3674C19.2233 11.7719 18.9112 11.225 18.4528 10.7957C17.9944 10.3664 17.4104 10.074 16.7746 9.95559C16.1389 9.83715 15.4798 9.89794 14.881 10.1303C14.2821 10.3626 13.7702 10.7561 13.41 11.2609C13.0499 11.7657 12.8577 12.3591 12.8577 12.9663C12.8577 13.7804 13.203 14.5612 13.8176 15.1368C14.4323 15.7125 15.266 16.0359 16.1352 16.0359Z" fill="white"/>
<path d="M39.3388 6.87378H35.6518C35.4994 6.87378 35.3978 6.94516 35.3466 7.08792L29.244 23.2345C29.1678 23.4014 29.2698 23.5441 29.473 23.5441H32.0665C32.2193 23.5441 32.3463 23.4965 32.3971 23.33L33.9229 18.9003H40.89L42.4665 23.33C42.5173 23.4727 42.6193 23.5441 42.7717 23.5441H45.4418C45.645 23.5441 45.7467 23.4014 45.6704 23.2345L39.644 7.08826C39.5932 6.9455 39.4916 6.87378 39.3388 6.87378ZM40.0763 16.5662H34.7111L37.3554 8.87412L40.0763 16.5662Z" fill="#111111"/>
<path d="M46.976 7.1355L47.1287 15.0896L46.976 23.2817C46.976 23.4724 47.0779 23.5438 47.2558 23.5438H49.9258C50.1037 23.5438 50.2053 23.4724 50.2053 23.2817L50.1037 17.4234H53.4858C57.5034 17.4234 60.046 15.5658 60.046 12.0652C60.046 8.63585 57.5796 6.87378 53.4858 6.87378H47.2558C47.0779 6.87378 46.976 6.94481 46.976 7.1355ZM50.1799 9.01688H53.6128C55.774 9.01688 57.02 10.0169 57.02 12.1365C57.02 14.399 55.5962 15.2803 53.7144 15.2803H50.0783L50.1799 9.01688Z" fill="#111111"/>
<path d="M64.9543 15.1138L65.1071 7.13548C65.1071 6.94514 65.0055 6.87341 64.8273 6.87341H62.1826C62.0048 6.87341 61.9032 6.94514 61.9032 7.13548L62.0556 15.1134L61.9032 23.2817C61.9032 23.4724 62.0048 23.5438 62.1826 23.5438H64.8273C65.0055 23.5438 65.1071 23.4724 65.1071 23.2817L64.9543 15.1134V15.1138Z" fill="#111111"/>
<path d="M98.8962 23.571H102.269V5.42932H97.3635C92.4298 5.42932 89.8378 7.80449 89.8378 11.3024C89.8378 14.0955 91.2594 15.7404 93.7958 17.4369L89.392 23.5714H93.0432L97.9485 16.7059L96.2486 15.6355C94.1861 14.3304 93.1824 13.3124 93.1824 11.1197C93.1824 9.18794 94.6319 7.88277 97.3911 7.88277H98.8962V23.571ZM143.185 22.6838V20.1517C142.154 20.8041 140.426 21.3786 138.809 21.3786C136.384 21.3786 135.464 20.3083 135.325 18.1155H143.324V16.4707C143.324 11.9028 141.178 10.18 137.862 10.18C133.82 10.18 131.897 13.0776 131.897 17.0455C131.897 21.6135 134.294 23.8321 138.53 23.8321C140.649 23.8321 142.209 23.31 143.185 22.6838ZM163.922 23.8321C165.455 23.8321 166.542 23.571 167.35 23.0231V20.491C166.514 21.0393 165.511 21.3786 164.117 21.3786C161.748 21.3786 160.772 19.6555 160.772 16.9407C160.772 14.0959 161.971 12.6338 164.145 12.6338C165.427 12.6338 166.681 13.0514 167.35 13.4431V10.8066C166.653 10.441 165.427 10.18 163.782 10.18C159.546 10.18 157.344 13.0252 157.344 17.0193C157.344 21.4045 159.49 23.8321 163.922 23.8321ZM112.805 10.4414V15.6359H108.373V10.4414H105.056V23.5714H108.373V18.0897H112.805V23.5714H116.121V10.4414H112.805ZM131.089 21.1176H129.611V10.4414H119.94V11.5635C119.94 14.7741 119.717 18.9248 118.546 21.1173H117.515V26.5731H120.581V23.571H128.023V26.5731H131.089V21.1176ZM153.776 23.5714H157.539L152.216 16.4976L156.898 10.4414H153.554L148.871 16.4976V10.441H145.554V23.571H148.871V17.1235L153.776 23.5714ZM137.806 12.6341C139.45 12.6341 139.952 13.9135 139.952 15.5576V15.8186H135.325C135.409 13.7304 136.217 12.6341 137.806 12.6341ZM126.294 21.1173H121.612C122.532 19.1335 122.783 15.5573 122.783 13.2862V12.8948H126.294V21.1173Z" fill="white"/>
<path d="M184.466 23.571H188.396L181.483 14.0173L187.95 5.42932H184.605L178.334 13.7824V5.42932H174.961V23.571H178.334V15.0614L184.466 23.571Z" fill="white"/>
<path d="M199.579 14.6176C199.579 11.4331 197.851 10.2324 194.339 10.2324C192.137 10.2324 190.409 10.8848 189.406 11.4331V14.0172C190.298 13.3907 192.249 12.7121 193.949 12.7121C195.538 12.7121 196.262 13.2341 196.262 14.6438V15.3748H195.733C190.66 15.3748 188.402 16.9407 188.402 19.6035C188.402 22.2659 190.13 23.7538 192.695 23.7538C194.646 23.7538 195.482 23.1538 196.123 22.5269H196.262C196.29 22.8662 196.401 23.31 196.513 23.571H199.746C199.635 22.5041 199.579 21.4327 199.579 20.3607V14.6176ZM196.262 20.4386C195.844 21.0131 195.064 21.4828 193.893 21.4828C192.499 21.4828 191.803 20.7 191.803 19.5252C191.803 17.9852 192.945 17.4369 195.788 17.4369H196.262V20.4386Z" fill="white"/>
<path d="M205.214 10.4414H202.148V27.3563H205.465V22.0311C206.301 23.2056 207.527 23.8321 208.949 23.8321C212.182 23.8321 214.412 21.4045 214.412 16.9932C214.412 12.6076 212.238 10.1801 209.116 10.1801C207.555 10.1801 206.273 10.8587 205.381 12.138L205.214 10.4414ZM208.113 21.3787C206.357 21.3787 205.465 20.0473 205.465 17.0194C205.465 13.9652 206.412 12.6338 208.28 12.6338C210.092 12.6338 210.983 13.9649 210.983 16.9932C210.983 20.0473 210.036 21.3787 208.113 21.3787Z" fill="white"/>
<path d="M225.972 12.8948V10.441H214.851V12.8948H218.753V23.571H222.07V12.8948H225.972Z" fill="white"/>
<path d="M227.837 10.4414V23.571H232.882C236.143 23.571 238.457 22.0048 238.457 18.9248C238.457 16.001 236.394 14.461 232.938 14.461H231.154V10.441H227.837V10.4414ZM239.683 10.4414V23.571H243V10.4414H239.683ZM232.687 21.1172H231.154V16.9148H232.771C234.192 16.9148 235.028 17.5148 235.028 19.0293C235.028 20.5431 234.108 21.1172 232.687 21.1172Z" fill="white"/>
</g>
<defs>
<linearGradient id="paint0_linear_3_1079" x1="16.1349" y1="4.19031" x2="16.1349" y2="26.1172" gradientUnits="userSpaceOnUse">
<stop stop-color="#FF6122"/>
<stop offset="1" stop-color="#F22411"/>
</linearGradient>
<clipPath id="clip0_3_1079">
<rect width="243" height="30" fill="white"/>
</clipPath>
</defs>
</svg>
